<mxfile host="app.diagrams.net" modified="2022-04-18T01:55:47.953Z" agent="5.0 (Macintosh; Intel Mac OS X 10_15_7) AppleWebKit/537.36 (KHTML, like Gecko) Chrome/100.0.4896.60 Safari/537.36" etag="Wwa6tlDsZCdz2UTH4Nhg" version="16.5.5" type="github">
  <diagram id="prtHgNgQTEPvFCAcTncT" name="Page-1">
    <mxGraphModel dx="1426" dy="698" grid="1" gridSize="10" guides="1" tooltips="1" connect="1" arrows="1" fold="1" page="1" pageScale="1" pageWidth="827" pageHeight="1169" math="0" shadow="0">
      <root>
        <mxCell id="0" />
        <mxCell id="1" parent="0" />
        <mxCell id="dNxyNK7c78bLwvsdeMH5-11" value="用户主页" style="swimlane;html=1;startSize=0;horizontal=1;containerType=tree;glass=0;" parent="1" vertex="1">
          <mxGeometry x="40" y="80" width="710" height="580" as="geometry" />
        </mxCell>
        <mxCell id="d90tsKMieC8giStLm-Mb-1" value="用户名：" style="rounded=0;whiteSpace=wrap;html=1;" vertex="1" parent="dNxyNK7c78bLwvsdeMH5-11">
          <mxGeometry x="30" y="50" width="120" height="30" as="geometry" />
        </mxCell>
        <mxCell id="d90tsKMieC8giStLm-Mb-2" value="上线任务： 10 个" style="rounded=0;whiteSpace=wrap;html=1;" vertex="1" parent="dNxyNK7c78bLwvsdeMH5-11">
          <mxGeometry x="30" y="132" width="120" height="60" as="geometry" />
        </mxCell>
        <mxCell id="d90tsKMieC8giStLm-Mb-3" value="活跃任务： 10 个" style="rounded=0;whiteSpace=wrap;html=1;" vertex="1" parent="dNxyNK7c78bLwvsdeMH5-11">
          <mxGeometry x="180" y="132" width="120" height="60" as="geometry" />
        </mxCell>
        <mxCell id="d90tsKMieC8giStLm-Mb-4" value="当日数据量： xx 亿" style="rounded=0;whiteSpace=wrap;html=1;" vertex="1" parent="dNxyNK7c78bLwvsdeMH5-11">
          <mxGeometry x="30" y="270" width="120" height="60" as="geometry" />
        </mxCell>
        <mxCell id="d90tsKMieC8giStLm-Mb-5" value="每秒处理消息数：yy 万" style="rounded=0;whiteSpace=wrap;html=1;" vertex="1" parent="dNxyNK7c78bLwvsdeMH5-11">
          <mxGeometry x="180" y="270" width="120" height="60" as="geometry" />
        </mxCell>
        <mxCell id="d90tsKMieC8giStLm-Mb-9" value="xyz" style="text;html=1;strokeColor=none;fillColor=none;align=center;verticalAlign=middle;whiteSpace=wrap;rounded=0;" vertex="1" parent="dNxyNK7c78bLwvsdeMH5-11">
          <mxGeometry x="180" y="50" width="60" height="30" as="geometry" />
        </mxCell>
        <mxCell id="d90tsKMieC8giStLm-Mb-13" value="用户信息" style="line;strokeWidth=2;html=1;" vertex="1" parent="dNxyNK7c78bLwvsdeMH5-11">
          <mxGeometry x="30" y="100" width="600" height="10" as="geometry" />
        </mxCell>
        <mxCell id="d90tsKMieC8giStLm-Mb-14" value="离线任务： 2个" style="rounded=0;whiteSpace=wrap;html=1;" vertex="1" parent="dNxyNK7c78bLwvsdeMH5-11">
          <mxGeometry x="330" y="132" width="120" height="60" as="geometry" />
        </mxCell>
        <mxCell id="d90tsKMieC8giStLm-Mb-15" value="开发中： 1个" style="rounded=0;whiteSpace=wrap;html=1;" vertex="1" parent="dNxyNK7c78bLwvsdeMH5-11">
          <mxGeometry x="480" y="132" width="120" height="60" as="geometry" />
        </mxCell>
        <mxCell id="d90tsKMieC8giStLm-Mb-16" value="实时信息" style="line;strokeWidth=2;html=1;" vertex="1" parent="dNxyNK7c78bLwvsdeMH5-11">
          <mxGeometry x="30" y="220" width="600" height="10" as="geometry" />
        </mxCell>
        <mxCell id="d90tsKMieC8giStLm-Mb-17" value="部门：" style="rounded=0;whiteSpace=wrap;html=1;" vertex="1" parent="dNxyNK7c78bLwvsdeMH5-11">
          <mxGeometry x="330" y="50" width="120" height="30" as="geometry" />
        </mxCell>
        <mxCell id="d90tsKMieC8giStLm-Mb-18" value="风控" style="text;html=1;strokeColor=none;fillColor=none;align=center;verticalAlign=middle;whiteSpace=wrap;rounded=0;" vertex="1" parent="dNxyNK7c78bLwvsdeMH5-11">
          <mxGeometry x="480" y="50" width="60" height="30" as="geometry" />
        </mxCell>
        <mxCell id="d90tsKMieC8giStLm-Mb-19" value="当前背压任务数：1个" style="rounded=0;whiteSpace=wrap;html=1;" vertex="1" parent="dNxyNK7c78bLwvsdeMH5-11">
          <mxGeometry x="330" y="270" width="120" height="60" as="geometry" />
        </mxCell>
        <mxCell id="d90tsKMieC8giStLm-Mb-20" value="过去24小时告警数：10个" style="rounded=0;whiteSpace=wrap;html=1;" vertex="1" parent="dNxyNK7c78bLwvsdeMH5-11">
          <mxGeometry x="480" y="270" width="120" height="60" as="geometry" />
        </mxCell>
        <mxCell id="d90tsKMieC8giStLm-Mb-21" value="" style="shape=ext;double=1;rounded=0;whiteSpace=wrap;html=1;" vertex="1" parent="dNxyNK7c78bLwvsdeMH5-11">
          <mxGeometry x="30" y="380" width="570" height="160" as="geometry" />
        </mxCell>
        <mxCell id="d90tsKMieC8giStLm-Mb-7" value="" style="edgeStyle=entityRelationEdgeStyle;startArrow=none;endArrow=none;segment=10;curved=1;rounded=0;entryX=0.772;entryY=0.313;entryDx=0;entryDy=0;entryPerimeter=0;" edge="1" target="d90tsKMieC8giStLm-Mb-21" parent="dNxyNK7c78bLwvsdeMH5-11">
          <mxGeometry relative="1" as="geometry">
            <mxPoint x="90" y="510" as="sourcePoint" />
            <mxPoint x="260" y="470" as="targetPoint" />
          </mxGeometry>
        </mxCell>
        <mxCell id="d90tsKMieC8giStLm-Mb-22" value="实时数据量" style="text;html=1;strokeColor=none;fillColor=none;align=center;verticalAlign=middle;whiteSpace=wrap;rounded=0;" vertex="1" parent="dNxyNK7c78bLwvsdeMH5-11">
          <mxGeometry x="50" y="390" width="90" height="30" as="geometry" />
        </mxCell>
      </root>
    </mxGraphModel>
  </diagram>
</mxfile>
